# xmcd CD database file
#
# Track frame offsets:
#	150
#	48622
#	104295
#	134152
#	140094
#	158147
#
# Disc length: 2707 seconds
#
# Revision: 0
# Processed by: cddbd v1.5.2PL0 Copyright (c) Steve Scherf et al.
# Submitted via: CDex 1.51
#
DISCID=5a0a9106
DTITLE=Miles Davis - Black Beauty: Miles Davis At Fillmore West [CD1]
DYEAR=1977
DGENRE=Jazz
TTITLE0=Directions
TTITLE1=Miles Runs The Voodoo Down
TTITLE2=Willie Nelson
TTITLE3=I Fall In Love Too Easily
TTITLE4=Sanctuary
TTITLE5=It's About That Time
EXTD=YEAR: 1977
EXTT0=
EXTT1=
EXTT2=
EXTT3=
EXTT4=
EXTT5=
PLAYORDER=
